{
  "accessors": [
    {
      "bufferView": 3,
      "componentType": 5126,
      "count": 546,
      "max": [
        1.7286629676818848,
        7.287448406219482,
        0.702693521976471
      ],
      "min": [
        -1.7286630868911743,
        -0.044731613248586655,
        -0.5047573447227478
      ],
      "type": "VEC3"
    },
    {
      "bufferView": 3,
      "byteOffset": 6552,
      "componentType": 5126,
      "count": 546,
      "max": [
        0.9938206672668457,
        0.9493697881698608,
        0.9963855147361755
      ],
      "min": [
        -0.9938207268714905,
        -0.9999911189079285,
        -0.9955883026123047
      ],
      "type": "VEC3"
    },
    {
      "bufferView": 2,
      "componentType": 5126,
      "count": 546,
      "max": [
        0.75,
        0.875
      ],
      "min": [
        0.0,
        0.0
      ],
      "type": "VEC2"
    },
    {
      "bufferView": 1,
      "componentType": 5125,
      "count": 738,
      "type": "SCALAR"
    },
    {
      "bufferView": 5,
      "componentType": 5126,
      "count": 34,
      "max": [
        37.2476921081543,
        0.2516816556453705,
        0.2043430656194687,
        0.0,
        0.11008580774068832,
        37.2476921081543,
        0.27951139211654663,
        0.0,
        0.2559167444705963,
        0.27951136231422424,
        37.2476921081543,
        0.0,
        0.81711745262146,
        1.3500512838363647,
        0.6221135258674622,
        1.0
      ],
      "min": [
        -0.27951133251190186,
        -0.25168168544769287,
        -0.2043430507183075,
        0.0,
        -0.11008579283952713,
        -0.27939724922180176,
        -0.25288498401641846,
        0.0,
        -0.2559167742729187,
        -0.10986549407243729,
        -0.2791708707809448,
        0.0,
        -0.8171175122261047,
        -1.7813005447387695,
        -1.574126958847046,
        1.0
      ],
      "type": "MAT4"
    },
    {
      "bufferView": 0,
      "componentType": 5123,
      "count": 546,
      "type": "VEC4"
    },
    {
      "bufferView": 4,
      "componentType": 5126,
      "count": 546,
      "max": [
        1.0,
        0.49377959966659546,
        0.17707502841949463,
        0.12152963131666183
      ],
      "min": [
        0.3506976366043091,
        0.0,
        0.0,
        0.0
      ],
      "type": "VEC4"
    }
  ],
  "asset": {
    "extras": {
      "author": "assblasterplastered (https://sketchfab.com/assblasterplastered)",
      "license": "CC-BY-4.0 (http://creativecommons.org/licenses/by/4.0/)",
      "source": "https://sketchfab.com/3d-models/base-mesh-246-tri-f37b449539bb45689533d01c7126ff98",
      "title": "Base Mesh 246 Tri"
    },
    "generator": "Sketchfab-12.66.0",
    "version": "2.0"
  },
  "bufferViews": [
    {
      "buffer": 0,
      "byteLength": 4368,
      "byteStride": 8,
      "name": "shortBufferViews",
      "target": 34962
    },
    {
      "buffer": 0,
      "byteLength": 2952,
      "byteOffset": 4368,
      "name": "floatBufferViews",
      "target": 34963
    },
    {
      "buffer": 0,
      "byteLength": 4368,
      "byteOffset": 7320,
      "byteStride": 8,
      "name": "floatBufferViews",
      "target": 34962
    },
    {
      "buffer": 0,
      "byteLength": 13104,
      "byteOffset": 11688,
      "byteStride": 12,
      "name": "floatBufferViews",
      "target": 34962
    },
    {
      "buffer": 0,
      "byteLength": 8736,
      "byteOffset": 24792,
      "byteStride": 16,
      "name": "floatBufferViews",
      "target": 34962
    },
    {
      "buffer": 0,
      "byteLength": 2176,
      "byteOffset": 33528,
      "name": "floatBufferViews"
    }
  ],
  "buffers": [
    {
      "byteLength": 35704,
      "uri": "scene.bin"
    }
  ],
  "materials": [
    {
      "doubleSided": true,
      "name": "Scene_-_Root",
      "pbrMetallicRoughness": {
        "metallicFactor": 0.0,
        "roughnessFactor": 0.6
      }
    }
  ],
  "meshes": [
    {
      "name": "Cube__0",
      "primitives": [
        {
          "attributes": {
            "JOINTS_0": 5,
            "NORMAL": 1,
            "POSITION": 0,
            "TEXCOORD_0": 2,
            "WEIGHTS_0": 6
          },
          "indices": 3,
          "material": 0,
          "mode": 4
        }
      ]
    }
  ],
  "nodes": [
    {
      "children": [
        1
      ],
      "matrix": [
        1.0,
        0.0,
        0.0,
        0.0,
        0.0,
        2.220446049250313e-16,
        -1.0,
        0.0,
        0.0,
        1.0,
        2.220446049250313e-16,
        0.0,
        0.0,
        0.0,
        0.0,
        1.0
      ],
      "name": "Sketchfab_model"
    },
    {
      "children": [
        2
      ],
      "matrix": [
        1.0,
        0.0,
        0.0,
        0.0,
        0.0,
        0.0,
        1.0,
        0.0,
        0.0,
        -1.0,
        0.0,
        0.0,
        0.0,
        0.0,
        0.0,
        1.0
      ],
      "name": "f28aad667a4345a6a01a595f53c63e7d.fbx"
    },
    {
      "children": [
        3
      ],
      "name": "RootNode"
    },
    {
      "children": [
        4
      ],
      "matrix": [
        133.26004028320313,
        0.0,
        0.0,
        0.0,
        0.0,
        -2.1710816298722275e-05,
        -133.26004028320136,
        0.0,
        0.0,
        133.26004028320136,
        -2.1710816298722275e-05,
        0.0,
        0.0,
        0.0,
        0.0,
        1.0
      ],
      "name": "metarig"
    },
    {
      "children": [
        5,
        7,
        6
      ],
      "name": "Object_4"
    },
    {
      "children": [
        8
      ],
      "name": "_rootJoint"
    },
    {
      "matrix": [
        37.24769143014994,
        1.0097374710957231e-13,
        -9.146456412623214e-14,
        0.0,
        -9.1464561661827e-14,
        -2.3218603092869792e-07,
        -37.24769068288012,
        0.0,
        -1.0097374550962831e-13,
        37.24769062963479,
        -2.321860305967895e-07,
        0.0,
        -6.035151219919987e-13,
        133.8348688671488,
        1.3245132350903077e-06,
        1.0
      ],
      "name": "Object_6"
    },
    {
      "mesh": 0,
      "name": "Object_7",
      "skin": 0
    },
    {
      "children": [
        9,
        29,
        31,
        33,
        37
      ],
      "name": "spine_01",
      "rotation": [
        0.7685636281967163,
        7.626695008866591e-08,
        9.161990277561927e-08,
        0.6397735476493835
      ],
      "scale": [
        1.0,
        0.9999999403953552,
        0.9999999403953552
      ],
      "translation": [
        0.0,
        0.0551999993622303,
        1.0098999738693237
      ]
    },
    {
      "children": [
        10
      ],
      "name": "spine.001_02",
      "rotation": [
        -0.05849680304527283,
        -1.1900515772822473e-07,
        -6.973362332018951e-09,
        0.9982876181602478
      ],
      "translation": [
        1.7763568394002505e-15,
        0.21235781908035278,
        3.725290298461914e-09
      ]
    },
    {
      "children": [
        11,
        15,
        20,
        25,
        27
      ],
      "name": "spine.002_03",
      "rotation": [
        -0.05118483304977417,
        1.1905302699233289e-07,
        -6.101705807282087e-09,
        0.9986892938613892
      ],
      "translation": [
        1.5841154965244037e-22,
        0.2496223747730255,
        -4.103640094399452e-09
      ]
    },
    {
      "children": [
        12
      ],
      "name": "spine.004_04",
      "rotation": [
        0.20590931177139282,
        -1.1665479604516804e-07,
        2.454629388637386e-08,
        0.9785711765289307
      ],
      "scale": [
        1.0,
        0.9999999403953552,
        0.9999999403953552
      ],
      "translation": [
        9.410916490537602e-10,
        0.19065210223197937,
        -0.003947224467992783
      ]
    },
    {
      "children": [
        13
      ],
      "name": "spine.005_05",
      "rotation": [
        -0.09485747665166855,
        4.2777339016950716e-14,
        5.07324348648214e-16,
        0.9954909682273865
      ],
      "translation": [
        -1.5352472168984194e-21,
        0.06616348773241043,
        -9.313225746154785e-09
      ]
    },
    {
      "children": [
        14
      ],
      "name": "spine.006_06",
      "rotation": [
        -0.09371199458837509,
        5.047656632551569e-22,
        2.2016572701480338e-22,
        0.9955994486808777
      ],
      "scale": [
        1.0,
        0.9999999403953552,
        1.0
      ],
      "translation": [
        -4.408375619428476e-25,
        0.06270123273134232,
        -3.725290298461914e-08
      ]
    },
    {
      "name": "spine.006_end_025",
      "rotation": [
        -0.0,
        2.465190328815662e-32,
        1.0319271820557947e-30,
        1.0
      ],
      "translation": [
        -9.466330862652142e-30,
        0.19830000400543213,
        0.0
      ]
    },
    {
      "children": [
        16
      ],
      "name": "shoulder.L_07",
      "rotation": [
        -0.6367860436439514,
        -0.34452512860298157,
        -0.42463889718055725,
        0.543587863445282
      ],
      "scale": [
        1.0000001192092896,
        1.0000001192092896,
        1.0000001192092896
      ],
      "translation": [
        0.018299981951713562,
        0.13462981581687927,
        0.07382912933826447
      ]
    },
    {
      "children": [
        17
      ],
      "name": "upper_arm.L_08",
      "rotation": [
        -0.22532068192958832,
        0.6702078580856323,
        -0.4419218897819519,
        0.5520480871200562
      ],
      "scale": [
        0.9999999403953552,
        0.9999999403953552,
        1.0
      ],
      "translation": [
        -1.6763806343078613e-08,
        0.22617247700691223,
        -9.092036634683609e-08
      ]
    },
    {
      "children": [
        18
      ],
      "name": "forearm.L_09",
      "rotation": [
        0.19646617770195007,
        0.08716937899589539,
        -0.017847586423158646,
        0.9764650464057922
      ],
      "scale": [
        0.9999998807907104,
        1.0,
        0.9999998807907104
      ],
      "translation": [
        7.08969309926033e-08,
        0.3121432363986969,
        -9.313225746154785e-09
      ]
    },
    {
      "children": [
        19
      ],
      "name": "hand.L_010",
      "rotation": [
        -0.20486636459827423,
        -0.04088263958692551,
        -0.1850317120552063,
        0.9602716565132141
      ],
      "translation": [
        -2.3283064365386963e-08,
        0.27447184920310974,
        5.21540641784668e-08
      ]
    },
    {
      "name": "hand.L_end_026",
      "rotation": [
        -2.1064858766735392e-35,
        -6.938893903907228e-18,
        -3.0357660829594124e-18,
        1.0
      ],
      "translation": [
        -5.551115123125783e-17,
        0.13994181156158447,
        1.3877787807814457e-17
      ]
    },
    {
      "children": [
        21
      ],
      "name": "shoulder.R_011",
      "rotation": [
        -0.6367862224578857,
        0.3445250689983368,
        0.4246388077735901,
        0.5435879230499268
      ],
      "scale": [
        1.0000001192092896,
        1.0,
        1.0
      ],
      "translation": [
        -0.018300019204616547,
        0.13462983071804047,
        0.07382911443710327
      ]
    },
    {
      "children": [
        22
      ],
      "name": "upper_arm.R_012",
      "rotation": [
        -0.2253207415342331,
        -0.6702078580856323,
        0.44192180037498474,
        0.5520480871200562
      ],
      "scale": [
        0.9999998807907104,
        1.0000001192092896,
        1.0
      ],
      "translation": [
        3.725290298461914e-09,
        0.22617247700691223,
        1.862645371275562e-09
      ]
    },
    {
      "children": [
        23
      ],
      "name": "forearm.R_013",
      "rotation": [
        0.19646622240543365,
        -0.08716937899589539,
        0.01784762367606163,
        0.9764650464057922
      ],
      "scale": [
        0.9999998211860657,
        0.9999998211860657,
        0.9999997615814209
      ],
      "translation": [
        -1.0023359209299088e-07,
        0.31214308738708496,
        2.7939677238464355e-09
      ]
    },
    {
      "children": [
        24
      ],
      "name": "hand.R_014",
      "rotation": [
        -0.20486636459827423,
        0.040882620960474014,
        0.1850317418575287,
        0.9602716565132141
      ],
      "scale": [
        1.0,
        0.9999998807907104,
        1.0
      ],
      "translation": [
        4.842877388000488e-08,
        0.27447181940078735,
        -3.725290298461914e-08
      ]
    },
    {
      "name": "hand.R_end_00",
      "rotation": [
        1.504632769052528e-35,
        -6.938893903907228e-18,
        2.168404344971009e-18,
        1.0
      ],
      "translation": [
        0.0,
        0.13994181156158447,
        6.938893903907228e-18
      ]
    },
    {
      "children": [
        26
      ],
      "name": "breast.L_015",
      "rotation": [
        -1.3036869006555207e-07,
        0.693874180316925,
        0.720096230506897,
        2.0777175535613424e-08
      ],
      "translation": [
        0.11840000748634338,
        -0.006435899063944817,
        -0.04838520288467407
      ]
    },
    {
      "name": "breast.L_end_027",
      "rotation": [
        -3.308722450212111e-24,
        5.748245217324144e-24,
        3.308722450212111e-24,
        1.0
      ],
      "translation": [
        1.3877787807814457e-17,
        0.13920000195503235,
        -4.440892098500626e-16
      ]
    },
    {
      "children": [
        28
      ],
      "name": "breast.R_016",
      "rotation": [
        -1.3036869006555207e-07,
        0.693874180316925,
        0.720096230506897,
        2.0777175535613424e-08
      ],
      "translation": [
        -0.11839999258518219,
        -0.006435899063944817,
        -0.04838526248931885
      ]
    },
    {
      "name": "breast.R_end_028",
      "rotation": [
        -3.308722450212111e-24,
        5.748245217324144e-24,
        3.308722450212111e-24,
        1.0
      ],
      "translation": [
        1.3877787807814457e-17,
        0.13920000195503235,
        0.0
      ]
    },
    {
      "children": [
        30
      ],
      "name": "pelvis.L_017",
      "rotation": [
        -0.13433966040611267,
        -0.7828670144081116,
        -0.31305819749832153,
        0.5206406712532043
      ],
      "scale": [
        1.0,
        1.0000003576278687,
        1.0
      ],
      "translation": [
        2.6645352591003757e-15,
        -2.7939677238464355e-09,
        -3.725290298461914e-09
      ]
    },
    {
      "name": "pelvis.L_end_029",
      "rotation": [
        -5.551115123125783e-17,
        5.551115123125783e-17,
        -5.551115123125783e-17,
        1.0
      ],
      "translation": [
        -5.551115123125783e-17,
        0.2073381543159485,
        1.1102230246251565e-16
      ]
    },
    {
      "children": [
        32
      ],
      "name": "pelvis.R_018",
      "rotation": [
        -0.13433976471424103,
        0.7828667759895325,
        0.31305819749832153,
        0.5206409692764282
      ],
      "scale": [
        1.0,
        1.000000238418579,
        0.9999999403953552
      ],
      "translation": [
        2.6645352591003757e-15,
        -2.7939677238464355e-09,
        -3.725290298461914e-09
      ]
    },
    {
      "name": "pelvis.R_end_030",
      "rotation": [
        -3.469446951953614e-17,
        -2.0816681711721685e-17,
        -2.7755575615628914e-17,
        1.0
      ],
      "translation": [
        0.0,
        0.2073381543159485,
        1.1102230246251565e-16
      ]
    },
    {
      "children": [
        34
      ],
      "name": "thigh.L_019",
      "rotation": [
        0.9949138164520264,
        0.07570196688175201,
        -0.005042306147515774,
        0.06625953316688538
      ],
      "scale": [
        0.9999983310699463,
        0.9999999403953552,
        0.9999987483024597
      ],
      "translation": [
        0.09799997508525848,
        0.07863979041576385,
        0.08399701118469238
      ]
    },
    {
      "children": [
        35
      ],
      "name": "shin.L_020",
      "rotation": [
        0.018190544098615646,
        0.003082313109189272,
        0.05166402831673622,
        0.9984940886497498
      ],
      "scale": [
        0.9999999403953552,
        0.9999999403953552,
        0.9999999403953552
      ],
      "translation": [
        1.6429112292826176e-08,
        0.5170471668243408,
        -3.4219169720017817e-09
      ]
    },
    {
      "children": [
        36
      ],
      "name": "foot.L_021",
      "rotation": [
        -0.5714333653450012,
        -0.014900260604918003,
        0.01920745149254799,
        0.820288360118866
      ],
      "scale": [
        0.9999998807907104,
        0.9999998211860657,
        0.9999998807907104
      ],
      "translation": [
        7.174094207584858e-09,
        0.4933348000049591,
        1.862645149230957e-09
      ]
    },
    {
      "name": "foot.L_end_031",
      "rotation": [
        7.174648137343064e-43,
        -3.3881317890172014e-21,
        2.117582368135751e-22,
        1.0
      ],
      "translation": [
        2.7755575615628914e-17,
        0.17223481833934784,
        2.0816681711721685e-17
      ]
    },
    {
      "children": [
        38
      ],
      "name": "thigh.R_022",
      "rotation": [
        0.9949138760566711,
        -0.0757024735212326,
        0.005042592063546181,
        0.06625909358263016
      ],
      "scale": [
        0.9999985098838806,
        0.9999998807907104,
        0.999998927116394
      ],
      "translation": [
        -0.09800001978874207,
        0.07863979041576385,
        0.0839969590306282
      ]
    },
    {
      "children": [
        39
      ],
      "name": "shin.R_023",
      "rotation": [
        0.0181905347853899,
        -0.0030823212582618,
        -0.051664046943187714,
        0.9984940886497498
      ],
      "scale": [
        1.0,
        1.0000001192092896,
        1.0
      ],
      "translation": [
        -2.3690517991781235e-08,
        0.5170471668243408,
        1.0746248335635755e-09
      ]
    },
    {
      "children": [
        40
      ],
      "name": "foot.R_024",
      "rotation": [
        -0.5714333057403564,
        0.014900256879627705,
        -0.01920744590461254,
        0.820288360118866
      ],
      "scale": [
        0.9999998807907104,
        0.9999998211860657,
        0.9999999403953552
      ],
      "translation": [
        -6.446498446166515e-09,
        0.4933348000049591,
        -3.6088749766349792e-09
      ]
    },
    {
      "name": "foot.R_end_032",
      "rotation": [
        3.29585398809197e-42,
        2.2234614865425384e-21,
        -1.4823076576950256e-21,
        1.0
      ],
      "translation": [
        0.0,
        0.17223481833934784,
        -6.938893903907228e-18
      ]
    }
  ],
  "scene": 0,
  "scenes": [
    {
      "name": "Sketchfab_Scene",
      "nodes": [
        0
      ]
    }
  ],
  "skins": [
    {
      "inverseBindMatrices": 4,
      "joints": [
        5,
        8,
        9,
        10,
        11,
        12,
        13,
        14,
        15,
        16,
        17,
        18,
        19,
        20,
        21,
        22,
        23,
        24,
        25,
        26,
        27,
        28,
        29,
        30,
        31,
        32,
        33,
        34,
        35,
        36,
        37,
        38,
        39,
        40
      ],
      "skeleton": 5
    }
  ]
}
